<svg width="274" height="96" viewBox="0 0 274 96" fill="none" xmlns="http://www.w3.org/2000/svg">
<mask id="mask0_3113_123067" style="mask-type:alpha" maskUnits="userSpaceOnUse" x="0" y="0" width="274" height="96">
<rect width="274" height="96" rx="8" fill="#E8E8E8"/>
</mask>
<g mask="url(#mask0_3113_123067)">
<g opacity="0.34">
<path opacity="0.34" d="M129.593 38.4059C129.593 32.72 134.147 28.1172 139.773 28.1172C145.265 28.1172 149.82 32.8554 149.82 38.5413C149.686 43.821 145.935 48.83 139.639 48.83C132.941 48.6946 129.459 43.1441 129.593 38.4059Z" fill="#4C4E5B"/>
<path opacity="0.34" d="M109.5 38.4052C109.5 32.7194 113.92 28.252 119.412 28.252C124.101 28.252 129.325 31.9071 129.325 38.4052C129.325 44.4971 124.502 48.423 119.412 48.5583C113.92 48.5583 109.5 44.0909 109.5 38.4052Z" fill="#4C4E5B"/>
<path opacity="0.34" d="M139.773 48.9648C145.265 48.9648 149.686 53.5677 149.686 59.2535C149.686 64.804 145.131 69.4068 139.639 69.2714C134.147 69.136 129.861 64.6686 129.861 58.9827C129.727 53.4323 134.281 48.9648 139.773 48.9648Z" fill="#4C4E5B"/>
<path opacity="0.34" d="M129.191 59.1194C129.191 64.6698 124.77 69.0018 119.412 69.0018C114.054 69.0018 109.634 64.5344 109.634 59.1194C109.634 53.569 114.054 49.1016 119.546 49.1016C124.904 49.2369 129.191 53.7043 129.191 59.1194Z" fill="#4C4E5B"/>
<path opacity="0.34" d="M169.243 38.4067C169.243 43.6864 165.09 47.8831 160 48.0184C154.776 48.0184 150.623 43.8218 150.623 38.5421C150.623 33.2624 154.91 29.0657 160 29.0657C165.09 28.9303 169.243 33.127 169.243 38.4067Z" fill="#4C4E5B"/>
<path opacity="0.34" d="M139.639 27.17C134.549 27.17 130.262 22.9734 130.262 17.6937C130.262 12.4141 134.549 8.08203 139.639 8.08203C144.729 8.08203 148.882 12.4141 148.882 17.6937C149.016 22.9734 144.863 27.17 139.639 27.17Z" fill="#4C4E5B"/>
<path opacity="0.34" d="M150.757 59.1183C150.757 53.8386 154.91 49.7773 160 49.7773C165.09 49.7773 169.109 53.974 169.109 59.1183C169.109 64.2627 164.957 68.5947 159.866 68.5947C154.776 68.5947 150.757 64.2627 150.757 59.1183Z" fill="#4C4E5B"/>
<path opacity="0.34" d="M110.169 17.6945C110.169 12.4148 114.322 8.35352 119.412 8.35352C124.502 8.35352 128.521 12.5502 128.521 17.6945C128.521 22.8387 124.369 27.1708 119.278 27.1708C114.322 27.1708 110.169 22.8387 110.169 17.6945Z" fill="#4C4E5B"/>
<path opacity="0.34" d="M108.16 38.4067C108.16 43.551 104.141 47.6123 99.1851 47.6123C94.2288 47.6123 90.2102 43.4156 90.2102 38.4067C90.2102 33.3978 94.2288 29.2012 99.1851 29.2012C104.275 29.2012 108.16 33.2624 108.16 38.4067Z" fill="#4C4E5B"/>
<path opacity="0.34" d="M139.639 88.9019C134.683 88.9019 130.664 84.7052 130.664 79.6962C130.664 74.6873 134.683 70.626 139.639 70.626C144.595 70.626 148.614 74.8227 148.614 79.8316C148.614 84.8405 144.595 88.9019 139.639 88.9019Z" fill="#4C4E5B"/>
<path opacity="0.34" d="M99.1852 68.1893C94.2289 68.1893 90.3442 64.128 90.3442 59.1191C90.3442 54.1101 94.3628 50.0488 99.1852 50.0488C104.141 50.0488 108.16 54.2455 108.16 59.2545C108.16 64.128 104.141 68.1893 99.1852 68.1893Z" fill="#4C4E5B"/>
<path opacity="0.34" d="M119.412 70.626C124.368 70.626 128.253 74.6873 128.253 79.6962C128.253 84.7052 124.368 88.7665 119.412 88.7665C114.456 88.7665 110.437 84.7052 110.437 79.5609C110.437 74.6873 114.456 70.626 119.412 70.626Z" fill="#4C4E5B"/>
<path opacity="0.34" d="M160 8.75781C164.822 8.75781 168.707 12.8192 168.707 17.6928C168.707 22.5664 164.689 26.7631 159.866 26.6277C155.044 26.6277 151.159 22.5663 151.159 17.5574C151.293 12.6838 155.178 8.75781 160 8.75781Z" fill="#4C4E5B"/>
<path opacity="0.34" d="M160.134 71.0318C164.823 71.1672 168.573 75.0932 168.439 79.8314C168.305 84.705 164.421 88.4955 159.598 88.3601C155.044 88.2248 151.293 84.1634 151.427 79.4252C151.561 74.687 155.446 70.8965 160.134 71.0318Z" fill="#4C4E5B"/>
<path opacity="0.34" d="M107.758 17.8277C107.758 22.566 104.007 26.4919 99.3191 26.4919C94.6307 26.4919 90.7461 22.566 90.7461 17.8277C90.7461 12.9541 94.6307 9.16356 99.3191 9.16356C104.007 9.02818 107.758 12.9541 107.758 17.8277Z" fill="#4C4E5B"/>
<path opacity="0.34" d="M99.1852 71.3027C103.74 71.3027 107.49 75.0933 107.49 79.6962C107.49 84.4344 103.74 88.225 99.1852 88.225C94.6308 88.225 91.014 84.4344 91.014 79.6962C91.014 74.9579 94.6308 71.3027 99.1852 71.3027Z" fill="#4C4E5B"/>
<path opacity="0.34" d="M180.093 46.8004C175.539 46.8004 171.922 43.0098 171.922 38.407C171.922 33.8042 175.673 30.0137 180.227 30.0137C184.782 30.0137 188.398 33.8042 188.398 38.5424C188.398 43.1452 184.648 46.8004 180.093 46.8004Z" fill="#4C4E5B"/>
<path opacity="0.34" d="M147.944 -2.88404C147.944 1.71874 144.328 5.50928 139.773 5.50928C135.219 5.50928 131.468 1.71874 131.468 -2.88404C131.468 -7.48682 135.085 -11.2773 139.639 -11.2773C144.194 -11.2773 147.81 -7.6222 147.944 -2.88404Z" fill="#4C4E5B"/>
<path opacity="0.34" d="M188.264 59.2534C188.13 63.8562 184.38 67.5114 179.825 67.376C175.405 67.2406 171.788 63.4501 171.922 58.8472C172.056 54.3798 175.807 50.7246 180.227 50.7246C184.782 50.86 188.398 54.6505 188.264 59.2534Z" fill="#4C4E5B"/>
<path opacity="0.34" d="M127.583 -2.88308C127.583 1.71971 123.967 5.51025 119.412 5.51025C114.858 5.51025 111.241 1.85509 111.241 -2.7477C111.241 -7.35049 114.858 -11.141 119.412 -11.141C123.967 -11.2764 127.583 -7.48587 127.583 -2.88308Z" fill="#4C4E5B"/>
<path opacity="0.34" d="M78.9582 30.4199C83.2447 30.4199 86.7275 34.0751 86.7275 38.5425C86.7275 42.8746 83.1108 46.5298 78.8243 46.3944C74.5377 46.3944 71.0549 42.7392 71.0549 38.4072C71.0549 33.9397 74.6717 30.4199 78.9582 30.4199Z" fill="#4C4E5B"/>
<path opacity="0.34" d="M139.639 108.396C135.219 108.396 131.736 104.877 131.736 100.409C131.736 96.0771 135.219 92.4219 139.505 92.4219C143.792 92.4219 147.408 96.0771 147.408 100.409C147.542 104.877 144.06 108.396 139.639 108.396Z" fill="#4C4E5B"/>
<path opacity="0.34" d="M187.997 17.6942C187.997 22.0263 184.514 25.6814 180.227 25.6814C175.941 25.6814 172.324 22.0263 172.324 17.6942C172.324 13.2268 175.941 9.70703 180.227 9.70703C184.514 9.70703 187.997 13.3622 187.997 17.6942Z" fill="#4C4E5B"/>
<path opacity="0.34" d="M159.866 5.104C155.58 5.104 151.963 1.44883 152.097 -3.01861C152.097 -7.35067 155.714 -11.0059 160 -11.0059C164.287 -11.0059 167.769 -7.48605 167.769 -3.01861C167.769 1.44883 164.287 5.104 159.866 5.104Z" fill="#4C4E5B"/>
<path opacity="0.34" d="M127.182 100.544C127.182 104.877 123.565 108.396 119.412 108.396C115.126 108.396 111.643 104.741 111.643 100.274C111.777 95.8063 115.26 92.4219 119.546 92.4219C123.833 92.5573 127.182 96.077 127.182 100.544Z" fill="#4C4E5B"/>
<path opacity="0.34" d="M71.1888 58.9827C71.1888 54.5152 74.6716 50.9954 78.9582 51.1307C83.2447 51.1307 86.7275 54.7859 86.7275 59.118C86.7275 63.4501 83.2447 66.97 78.9582 67.1053C74.6716 66.97 71.1888 63.4501 71.1888 58.9827Z" fill="#4C4E5B"/>
<path opacity="0.34" d="M180.093 87.5477C175.941 87.5477 172.458 84.028 172.592 79.6959C172.592 75.3639 176.075 71.9795 180.227 71.9795C184.514 71.9795 187.863 75.4993 187.863 79.8313C187.729 84.028 184.246 87.5477 180.093 87.5477Z" fill="#4C4E5B"/>
<path opacity="0.34" d="M106.821 -2.88442C106.821 1.44768 103.472 4.83215 99.1852 4.83215C95.0326 4.83215 91.5498 1.44768 91.5498 -2.88442C91.5498 -7.21651 94.8986 -10.7363 99.1852 -10.7363C103.472 -10.601 106.821 -7.21651 106.821 -2.88442Z" fill="#4C4E5B"/>
<path opacity="0.34" d="M78.9583 10.1133C83.1108 10.1133 86.4597 13.4977 86.4597 17.6944C86.4597 21.8911 83.2448 25.4109 79.0922 25.4109C74.9396 25.4109 71.5908 22.0265 71.5908 17.8298C71.4568 13.4977 74.8057 10.1133 78.9583 10.1133Z" fill="#4C4E5B"/>
<path opacity="0.34" d="M160 107.99C155.848 107.99 152.499 104.605 152.499 100.409C152.499 96.2122 155.714 92.6924 159.866 92.6924C164.019 92.6924 167.368 96.0768 167.368 100.273C167.368 104.605 164.153 107.99 160 107.99Z" fill="#4C4E5B"/>
<path opacity="0.34" d="M86.1918 79.6957C86.1918 83.757 82.9769 87.1414 78.8243 87.1414C74.8057 87.1414 71.5908 83.757 71.5908 79.6957C71.5908 75.6344 74.8057 72.25 78.9583 72.25C82.9769 72.25 86.1918 75.6344 86.1918 79.6957Z" fill="#4C4E5B"/>
<path opacity="0.34" d="M91.9517 100.273C91.9517 96.2119 95.3005 92.8275 99.3191 92.9629C103.338 92.9629 106.553 96.3473 106.419 100.409C106.419 104.47 103.07 107.719 99.1852 107.719C95.1666 107.854 91.9517 104.47 91.9517 100.273Z" fill="#4C4E5B"/>
<path opacity="0.34" d="M187.059 -2.88362C187.059 1.04232 183.978 4.29138 180.093 4.29138C176.209 4.29138 173.128 1.04232 173.128 -2.88362C173.128 -6.80956 176.343 -10.0586 180.227 -10.0586C183.978 -10.0586 187.193 -6.80956 187.059 -2.88362Z" fill="#4C4E5B"/>
<path opacity="0.34" d="M200.454 31.3672C204.339 31.3672 207.286 34.6162 207.286 38.5422C207.286 42.4681 204.071 45.5818 200.32 45.5818C196.436 45.5818 193.355 42.3327 193.489 38.4068C193.489 34.3455 196.57 31.3672 200.454 31.3672Z" fill="#4C4E5B"/>
<path opacity="0.34" d="M200.454 66.1593C196.57 66.1593 193.623 63.0456 193.623 59.1197C193.623 55.1938 196.703 52.0801 200.454 52.0801C204.205 52.0801 207.286 55.1938 207.42 59.1197C207.286 62.9103 204.205 66.1593 200.454 66.1593Z" fill="#4C4E5B"/>
<path opacity="0.34" d="M173.53 100.408C173.53 96.6179 176.477 93.6396 180.227 93.6396C183.978 93.6396 186.925 96.6179 186.925 100.408C186.925 104.199 183.844 107.313 180.227 107.313C176.343 107.177 173.396 104.199 173.53 100.408Z" fill="#4C4E5B"/>
<path opacity="0.34" d="M72.2605 -2.88349C72.2605 -6.67405 75.2075 -9.65234 78.8242 -9.65234C82.5749 -9.65234 85.5219 -6.67405 85.5219 -2.88349C85.5219 0.907071 82.5749 4.02075 78.8242 4.02075C75.3414 3.88538 72.2605 0.907071 72.2605 -2.88349Z" fill="#4C4E5B"/>
<path opacity="0.34" d="M193.757 17.8288C193.757 14.1736 196.704 11.1953 200.454 11.1953C204.071 11.1953 207.018 14.309 207.018 17.9642C207.018 21.7548 204.071 24.7331 200.32 24.5977C196.704 24.4624 193.757 21.484 193.757 17.8288Z" fill="#4C4E5B"/>
<path opacity="0.34" d="M58.7313 45.0398C55.1145 45.0398 52.3015 42.1969 52.3015 38.5417C52.3015 34.8865 55.1145 31.9082 58.7313 31.9082C62.3481 31.9082 65.295 34.8865 65.1611 38.5417C65.1611 42.0615 62.3481 45.0398 58.7313 45.0398Z" fill="#4C4E5B"/>
<path opacity="0.34" d="M65.1611 58.9826C65.1611 62.6377 62.2141 65.616 58.7313 65.616C55.2485 65.616 52.3015 62.6377 52.3015 59.1179C52.3015 55.4628 55.2485 52.6199 58.7313 52.6199C62.348 52.4845 65.1611 55.3274 65.1611 58.9826Z" fill="#4C4E5B"/>
<path opacity="0.34" d="M200.454 73.1982C203.937 73.1982 206.884 76.1765 206.884 79.6963C206.884 83.2161 204.071 86.1943 200.454 86.1943C196.971 86.1943 194.024 83.2161 194.024 79.5609C194.024 76.0411 196.837 73.1982 200.454 73.1982Z" fill="#4C4E5B"/>
<path opacity="0.34" d="M85.254 100.408C85.254 104.063 82.4409 106.771 78.9582 106.771C75.4754 106.771 72.6624 103.928 72.6624 100.408C72.6624 96.8885 75.4754 93.9102 79.0921 93.9102C82.4409 93.9102 85.254 96.8885 85.254 100.408Z" fill="#4C4E5B"/>
<path opacity="0.34" d="M52.7032 17.6942C52.7032 14.1744 55.5163 11.4668 58.8651 11.4668C62.2139 11.4668 64.893 14.3097 64.893 17.6942C64.893 21.214 62.08 23.9215 58.7312 23.9215C55.3823 23.9215 52.7032 21.0786 52.7032 17.6942Z" fill="#4C4E5B"/>
<path opacity="0.34" d="M64.6251 79.6955C64.6251 82.9445 61.946 85.6521 58.7311 85.6521C55.3823 85.6521 52.8372 82.9446 52.8372 79.5601C52.8372 76.3111 55.5162 73.6035 58.7311 73.6035C62.0799 73.7389 64.6251 76.4464 64.6251 79.6955Z" fill="#4C4E5B"/>
<path opacity="0.34" d="M206.214 -2.88325C206.214 0.365806 203.669 3.07336 200.454 3.07336C197.239 3.07336 194.694 0.365806 194.694 -2.88325C194.694 -6.13231 197.239 -8.83984 200.454 -8.83984C203.669 -8.83984 206.214 -6.13231 206.214 -2.88325Z" fill="#4C4E5B"/>
<path opacity="0.34" d="M200.32 105.959C197.373 105.959 194.962 103.387 194.962 100.409C194.962 97.2952 197.507 94.8584 200.454 94.8584C203.401 94.8584 205.812 97.4305 205.812 100.544C205.812 103.522 203.401 105.959 200.32 105.959Z" fill="#4C4E5B"/>
<path opacity="0.34" d="M58.7312 2.53125C55.7842 2.53125 53.373 0.0944824 53.373 -2.88379C53.373 -5.86206 55.7842 -8.29883 58.7312 -8.29883C61.6781 -8.29883 63.9553 -5.86206 64.0893 -2.88379C64.0893 0.0944824 61.8121 2.53125 58.7312 2.53125Z" fill="#4C4E5B"/>
<path opacity="0.34" d="M225.905 38.4053C225.905 41.3836 223.628 43.8204 220.681 43.8204C217.734 43.8204 215.323 41.3836 215.323 38.4053C215.323 35.427 217.734 32.9902 220.681 32.9902C223.494 32.9902 225.905 35.427 225.905 38.4053Z" fill="#4C4E5B"/>
<path opacity="0.34" d="M225.771 59.1192C225.771 62.0975 223.494 64.3989 220.547 64.3989C217.6 64.3989 215.323 62.0975 215.323 59.1192C215.323 56.1409 217.734 53.7041 220.681 53.7041C223.494 53.8395 225.771 56.1409 225.771 59.1192Z" fill="#4C4E5B"/>
<path opacity="0.34" d="M63.6875 100.409C63.6875 103.252 61.4103 105.553 58.5973 105.418C55.7843 105.418 53.641 103.117 53.641 100.274C53.641 97.5661 55.9182 95.2646 58.5973 95.2646C61.4103 95.2646 63.6875 97.5661 63.6875 100.409Z" fill="#4C4E5B"/>
<path opacity="0.34" d="M220.547 22.8369C217.868 22.8369 215.591 20.6709 215.591 17.8279C215.591 14.985 217.734 12.819 220.547 12.6836C223.226 12.6836 225.637 14.985 225.504 17.8279C225.504 20.6709 223.36 22.8369 220.547 22.8369Z" fill="#4C4E5B"/>
<path opacity="0.34" d="M220.547 84.5697C217.868 84.5697 215.859 82.5391 215.859 79.8315C215.859 77.124 218.002 74.958 220.681 74.958C223.226 74.958 225.37 77.2594 225.37 79.8315C225.37 82.4037 223.226 84.5697 220.547 84.5697Z" fill="#4C4E5B"/>
<path opacity="0.34" d="M33.8158 38.4062C33.8158 35.6988 35.9591 33.5328 38.5042 33.6681C41.0493 33.6681 43.1926 35.8341 43.1926 38.4062C43.1926 41.1137 41.0493 43.2797 38.5042 43.1444C35.8251 43.1444 33.8158 40.9784 33.8158 38.4062Z" fill="#4C4E5B"/>
<path opacity="0.34" d="M38.5042 54.3809C41.0494 54.3809 43.0587 56.4115 43.0587 58.9837C43.0587 61.5559 41.0494 63.7219 38.5042 63.7219C35.9591 63.7219 33.9498 61.5559 33.9498 58.9837C33.8159 56.4115 35.9591 54.3809 38.5042 54.3809Z" fill="#4C4E5B"/>
<path opacity="0.34" d="M34.2178 17.6934C34.2178 15.2566 36.0931 13.3613 38.5043 13.3613C40.9154 13.3613 42.7908 15.392 42.7908 17.8288C42.7908 20.2656 40.7815 22.1609 38.3703 22.1609C36.0931 22.0255 34.2178 20.1302 34.2178 17.6934Z" fill="#4C4E5B"/>
<path opacity="0.34" d="M220.681 1.31323C218.404 1.31323 216.663 -0.58204 216.663 -2.88343C216.663 -5.18483 218.538 -7.08008 220.815 -7.08008C223.092 -7.08008 224.834 -5.18483 224.834 -2.88343C224.7 -0.446664 222.958 1.31323 220.681 1.31323Z" fill="#4C4E5B"/>
<path opacity="0.34" d="M38.3702 83.8927C36.093 83.8927 34.3516 81.9974 34.3516 79.8314C34.3516 77.53 36.2269 75.6348 38.3702 75.6348C40.5134 75.6348 42.3888 77.53 42.3888 79.8314C42.5227 81.9974 40.6474 83.8927 38.3702 83.8927Z" fill="#4C4E5B"/>
<path opacity="0.34" d="M38.5042 0.499878C36.6289 0.499878 35.1554 -0.989248 35.1554 -3.01989C35.1554 -4.91516 36.6289 -6.4043 38.5042 -6.4043C40.3795 -6.4043 41.853 -4.77978 41.853 -3.01989C41.853 -0.989248 40.2456 0.499878 38.5042 0.499878Z" fill="#4C4E5B"/>
<path opacity="0.34" d="M243.855 38.4053C243.855 40.1651 242.516 41.3835 240.774 41.3835C239.167 41.3835 237.693 40.0298 237.693 38.2699C237.693 36.51 239.167 35.1562 240.774 35.1562C242.65 35.427 243.855 36.7808 243.855 38.4053Z" fill="#4C4E5B"/>
<path opacity="0.34" d="M240.908 62.0968C239.301 62.0968 237.961 60.743 237.961 59.1185C237.961 57.494 239.167 56.1403 240.774 56.0049C242.516 56.0049 243.855 57.2233 243.855 58.9832C243.855 60.7431 242.516 62.0968 240.908 62.0968Z" fill="#4C4E5B"/>
<path opacity="0.34" d="M243.453 17.8286C243.453 19.3177 242.248 20.5361 240.908 20.4007C239.569 20.4007 238.363 19.1823 238.363 17.6932C238.363 16.2041 239.569 15.1211 240.908 15.1211C242.248 15.2565 243.453 16.3395 243.453 17.8286Z" fill="#4C4E5B"/>
<path opacity="0.34" d="M240.774 77.2588C242.114 77.2588 243.185 78.2064 243.185 79.5602C243.185 80.9139 242.114 81.9969 240.908 81.9969C239.703 81.9969 238.497 80.9139 238.497 79.5602C238.497 78.4772 239.569 77.3942 240.774 77.2588Z" fill="#4C4E5B"/>
<path opacity="0.34" d="M18.1432 36.2402C19.3488 36.2402 20.2865 37.1879 20.2865 38.4063C20.2865 39.6247 19.3488 40.5724 18.1432 40.5724C16.9377 40.5724 16 39.6247 16 38.5417C16 37.3233 16.9377 36.2402 18.1432 36.2402Z" fill="#4C4E5B"/>
<path opacity="0.34" d="M20.2865 58.9834C20.2865 60.2018 19.4828 61.1495 18.2772 61.2848C17.3395 61.4202 16.8037 60.8787 16.6698 59.9311C16.6698 59.3896 16.5358 58.9834 16.5358 58.4419C16.4019 57.6297 16.5358 57.3589 17.2056 57.0882C18.6791 56.4113 20.2865 57.3589 20.2865 58.9834Z" fill="#4C4E5B"/>
<path opacity="0.34" d="M19.3488 16.3398C20.1525 17.829 20.0186 18.6413 18.6791 19.3182C18.947 18.3706 19.0809 17.5583 19.3488 16.3398Z" fill="#4C4E5B"/>
</g>
</g>
</svg>
